<svg width="694" height="198" viewBox="0 0 694 198" fill="none" xmlns="http://www.w3.org/2000/svg">
<path d="M58.7199 32.6001L57.9199 31.8H3.20989C0.359891 31.8 -1.07011 35.2501 0.949891 37.2701L98.3599 134.88C100.37 136.9 103.82 135.47 103.82 132.61V77.6901L103 76.8701L58.7299 32.6001H58.7199Z" fill="#0072E4"/>
<path d="M100.612 31.8H57.9219L103.812 77.69V35C103.812 33.23 102.372 31.79 100.612 31.79V31.8Z" fill="#0072E4"/>
<path d="M131.799 0.579956H34.4286C31.5786 0.579956 30.1486 4.02998 32.1686 6.03998L57.9186 31.79L103.819 76.97V77.68L129.549 103.41C131.559 105.43 135.009 104 135.009 101.15V3.77997C135.009 2.00997 133.569 0.579956 131.809 0.579956H131.799ZM103.499 34.64C103.489 33.84 103.169 33.12 102.679 32.57C103.369 33.16 103.809 34.02 103.809 35V54.63L103.489 34.64H103.499Z" fill="#42AFFD"/>
<path d="M100.612 31.8H57.9219L103.812 77.7001V35.0101C103.812 33.2401 102.372 31.8 100.612 31.8Z" fill="#0091FD"/>
<path d="M519.021 165.82C519.981 165.15 520.871 164.38 521.681 163.52C524.261 160.77 525.571 157.13 525.571 152.7C525.571 146.94 523.561 142.59 519.591 139.77C515.851 137.11 510.571 135.82 503.461 135.82H492.111C490.611 135.82 489.711 136.41 489.211 136.91C488.711 137.41 488.121 138.32 488.121 139.81V193.44C488.121 194.94 488.711 195.84 489.211 196.34C489.711 196.84 490.621 197.43 492.111 197.43H503.141C511.071 197.43 516.901 196.03 520.961 193.16C525.251 190.13 527.421 185.67 527.421 179.9C527.421 175.07 525.901 171.24 522.901 168.5C521.741 167.45 520.451 166.55 519.011 165.8V165.82H519.021ZM515.271 159.96C512.921 161.85 509.131 162.81 504.031 162.81H495.141V142.85H503.231C508.721 142.85 512.761 143.73 515.251 145.48C517.481 147.04 518.561 149.43 518.561 152.79C518.561 155.85 517.481 158.19 515.271 159.96ZM495.131 169.82H504.021C518.711 169.82 520.401 175.63 520.401 180C520.401 184.37 518.611 190.42 503.131 190.42H495.121V169.81H495.131V169.82Z" fill="#1A2733"/>
<path d="M564.021 139.39C564.021 139.39 564.011 139.36 564.001 139.35C563.531 138.35 563.151 137.67 562.871 137.28C561.461 135.35 558.621 135.36 557.231 137.28C556.961 137.65 556.571 138.34 556.081 139.38L532.181 192.76C531.671 193.78 531.591 194.72 531.921 195.53C532.311 196.53 533.751 197.4 534.821 197.4H535.461C536.351 197.4 537.111 197.15 537.671 196.68C538.161 196.29 538.541 195.76 538.881 194.98L560.051 147.48L581.211 194.96C581.451 195.51 581.801 196.2 582.361 196.64C582.971 197.15 583.731 197.41 584.631 197.41H585.191C587.261 197.41 588.351 195.94 588.351 194.49C588.351 194.04 588.241 193.67 587.971 192.87L564.021 139.38V139.39Z" fill="#1A2733"/>
<path d="M637.36 135.84H636.89C636.32 135.84 635.28 136.15 634.83 136.51C634.41 136.84 633.69 137.62 633.69 139.04V183.71L601.03 138.21C600.65 137.69 600.27 137.25 599.85 136.87C597.61 134.89 594 135.73 594 139.86V194.46C594 195.12 594.41 196.23 594.87 196.71C595.46 197.33 596.29 197.67 597.67 197.67C599.16 197.67 599.94 196.9 600.21 196.51C600.56 196.06 600.87 195.03 600.87 194.46V149.82L633.54 195.33C633.92 195.85 634.29 196.28 634.7 196.65C635.45 197.32 636.27 197.66 637.12 197.66C638.83 197.66 640.56 196.43 640.56 193.67V139.04C640.56 138.11 640.29 137.34 639.66 136.68C639.09 136.12 638.31 135.84 637.36 135.84Z" fill="#1A2733"/>
<path d="M665.449 166.76L692.199 141.84C692.549 141.5 693.369 140.7 693.369 139.46C693.369 138.03 692.269 136.57 690.169 136.57H689.619C688.819 136.57 688.149 136.72 687.639 136.98C687.209 137.19 686.769 137.49 686.129 138.05L660.069 162.41V139.04C660.069 138.11 659.799 137.34 659.199 136.71C658.619 136.13 657.839 135.84 656.869 135.84H656.399C655.829 135.84 654.789 136.15 654.339 136.51C653.919 136.84 653.199 137.62 653.199 139.04V194.45C653.199 195.12 653.619 196.24 654.089 196.72C654.679 197.32 655.499 197.65 656.879 197.65C658.369 197.65 659.149 196.88 659.419 196.49C659.769 196.04 660.079 195.01 660.079 194.44V171.09L686.199 195.51C686.759 196 687.199 196.31 687.569 196.48C688.149 196.78 688.819 196.93 689.619 196.93H690.169C692.269 196.93 693.369 195.48 693.369 194.04C693.369 192.8 692.549 192 692.159 191.61L665.449 166.74V166.76Z" fill="#1A2733"/>
<path d="M242.861 57.2801C237.471 54.3601 230.531 51.8501 222.061 49.7601C216.451 48.3301 212.131 47.01 209.101 45.8C206.081 44.59 203.791 43.1001 202.251 41.3401C200.711 39.5801 199.941 37.3301 199.941 34.5701C199.941 30.7201 201.511 27.6401 204.641 25.3201C207.781 23.0101 212.041 21.86 217.431 21.86C222.271 21.86 226.901 22.7401 231.301 24.5001C235.701 26.2701 240.161 28.7401 244.671 31.9301C245.881 32.8101 246.871 33.2501 247.641 33.2501C248.631 33.2501 249.561 32.54 250.441 31.11L257.371 20.2201C258.141 19.1201 258.521 18.1301 258.521 17.2501C258.521 16.1501 257.921 15.1601 256.701 14.2701C245.261 5.14005 232.221 0.570068 217.581 0.570068C209.551 0.570068 202.361 1.97006 196.041 4.78006C189.711 7.59006 184.761 11.6601 181.181 17.0001C177.611 22.3301 175.821 28.6901 175.821 36.0601C175.821 42.6601 177.221 48.1701 180.031 52.5701C182.841 56.9701 186.851 60.5501 192.081 63.2901C197.301 66.0401 203.931 68.4101 211.971 70.3901C218.021 71.9301 222.671 73.3601 225.921 74.6801C229.161 76.0001 231.501 77.4901 232.931 79.1401C234.361 80.7901 235.081 82.93 235.081 85.58C235.081 89.64 233.321 92.8701 229.801 95.2301C226.271 97.6001 221.271 98.7801 214.781 98.7801C209.611 98.7801 204.521 97.8201 199.511 95.8901C194.501 93.9601 189.911 91.35 185.731 88.05C184.631 87.06 183.641 86.5601 182.761 86.5601C182.321 86.5601 181.851 86.7501 181.361 87.1401C180.871 87.5201 180.401 88.0501 179.961 88.7101L173.031 99.4301C172.151 100.86 171.711 101.91 171.711 102.56C171.711 103.55 172.481 104.65 174.021 105.87C179.301 110.27 185.411 113.74 192.341 116.27C199.271 118.8 206.701 120.06 214.621 120.06C223.311 120.06 231.021 118.6 237.731 115.69C244.441 112.77 249.671 108.62 253.411 103.22C257.151 97.8301 259.021 91.45 259.021 84.08C259.021 77.81 257.671 72.5001 254.981 68.1501C252.281 63.8101 248.241 60.1801 242.851 57.2601" fill="#1A2733"/>
<path d="M361.948 24.44C362.548 23.84 362.858 22.82 362.858 21.38V7.84C362.858 6.41 362.558 5.40001 361.948 4.79001C361.338 4.19001 360.318 3.88 358.888 3.88H274.548C273.118 3.88 272.098 4.19001 271.488 4.79001C270.878 5.40001 270.578 6.41 270.578 7.84V21.38C270.578 22.81 270.878 23.83 271.488 24.44C272.098 25.04 273.118 25.35 274.548 25.35H302.938C303.708 25.35 304.278 25.52 304.668 25.84C305.048 26.17 305.248 26.72 305.248 27.49V115.47C305.248 116.9 305.548 117.92 306.158 118.52C306.768 119.13 307.788 119.43 309.218 119.43H324.238C325.668 119.43 326.718 119.13 327.378 118.52C328.038 117.92 328.368 116.89 328.368 115.47V27.49C328.368 26.72 328.538 26.17 328.868 25.84C329.198 25.52 329.738 25.35 330.518 25.35H358.908C360.338 25.35 361.358 25.05 361.968 24.44" fill="#1A2733"/>
<path d="M422.78 9.5C421.13 6.2 419.86 3.99999 418.98 2.89999C418.1 1.79999 417.05 1.25 415.84 1.25C414.63 1.25 413.53 1.79999 412.54 2.89999C411.55 3.99999 410.28 6.2 408.74 9.5L357.41 114.31C356.86 115.63 356.59 116.57 356.59 117.12C356.59 118.66 357.8 119.43 360.22 119.43H374.91C376.89 119.43 378.38 119.1 379.37 118.44C380.36 117.78 381.35 116.4 382.34 114.31L415.35 43.99L448.69 114.31C449.68 116.4 450.67 117.78 451.66 118.44C452.65 119.1 454.08 119.43 455.95 119.43H471.63C474.05 119.43 475.26 118.66 475.26 117.12C475.26 116.57 474.99 115.63 474.44 114.31L422.78 9.5Z" fill="#1A2733"/>
<path d="M555.479 71.9C562.079 69.15 567.219 65.24 570.909 60.18C574.599 55.12 576.439 48.85 576.439 41.36C576.439 28.81 572.369 19.43 564.219 13.21C556.079 6.98999 543.699 3.88 527.079 3.88H492.089C490.659 3.88 489.639 4.19001 489.039 4.79001C488.429 5.39001 488.129 6.41 488.129 7.84V115.46C488.129 116.89 488.429 117.91 489.039 118.52C489.639 119.12 490.659 119.43 492.089 119.43H507.109C508.539 119.43 509.589 119.13 510.249 118.52C510.909 117.92 511.239 116.89 511.239 115.46V26.65C511.239 25.78 511.409 25.2 511.739 24.92C512.069 24.65 512.619 24.51 513.389 24.51H526.269C534.739 24.51 541.209 26.03 545.659 29.04C550.119 32.07 552.339 36.83 552.339 43.32C552.339 49.37 550.219 54.05 545.989 57.35C541.749 60.65 536.169 62.69 529.239 63.46C527.259 63.57 526.269 64.18 526.269 65.27C526.269 65.93 526.599 66.76 527.259 67.75L555.489 114.62C556.699 116.6 557.829 117.9 558.869 118.5C559.909 119.1 561.479 119.41 563.569 119.41H579.579C582.219 119.41 583.539 118.75 583.539 117.43C583.539 116.77 583.099 115.73 582.219 114.29L555.479 71.87V71.9Z" fill="#1A2733"/>
<path d="M616.718 3.88H601.698C600.268 3.88 599.248 4.19001 598.648 4.79001C598.038 5.39001 597.738 6.41 597.738 7.84V115.46C597.738 116.89 598.038 117.91 598.648 118.52C599.248 119.12 600.268 119.43 601.698 119.43H616.718C618.148 119.43 619.198 119.13 619.858 118.52C620.518 117.92 620.848 116.89 620.848 115.46V7.84C620.848 6.41 620.518 5.39001 619.858 4.79001C619.198 4.18001 618.148 3.88 616.718 3.88Z" fill="#1A2733"/>
<path d="M650.059 60.34L691.319 8.35004C692.089 7.47004 692.479 6.64004 692.479 5.88004C692.479 4.55004 691.379 3.90002 689.179 3.90002H671.679C669.699 3.90002 668.209 4.18003 667.219 4.72003C666.229 5.28003 665.129 6.43004 663.919 8.20004L625.959 57.55C624.859 58.98 624.309 60.19 624.309 61.18C624.309 62.17 624.799 63.33 625.789 64.65L664.419 115.33C665.629 116.98 666.759 118.08 667.799 118.63C668.839 119.18 670.359 119.45 672.339 119.45H690.499C692.809 119.45 693.969 118.79 693.969 117.47C693.969 116.81 693.579 115.93 692.809 114.83L650.059 60.36V60.34Z" fill="#1A2733"/>
<path d="M58.7199 32.6001L57.9199 31.8H3.20989C0.359891 31.8 -1.07011 35.2501 0.949891 37.2701L98.3599 134.88C100.37 136.9 103.82 135.47 103.82 132.61V77.6901L103 76.8701L58.7299 32.6001H58.7199Z" fill="#0072E4"/>
<path d="M100.612 31.8H57.9219L103.812 77.69V35C103.812 33.23 102.372 31.79 100.612 31.79V31.8Z" fill="#0072E4"/>
<path d="M131.799 0.579956H34.4286C31.5786 0.579956 30.1486 4.02998 32.1686 6.03998L57.9186 31.79L103.819 76.97V77.68L129.549 103.41C131.559 105.43 135.009 104 135.009 101.15V3.77997C135.009 2.00997 133.569 0.579956 131.809 0.579956H131.799ZM103.499 34.64C103.489 33.84 103.169 33.12 102.679 32.57C103.369 33.16 103.809 34.02 103.809 35V54.63L103.489 34.64H103.499Z" fill="#42AFFD"/>
<path d="M100.612 31.8H57.9219L103.812 77.7001V35.0101C103.812 33.2401 102.372 31.8 100.612 31.8Z" fill="#0091FD"/>
<path d="M519.021 165.82C519.981 165.15 520.871 164.38 521.681 163.52C524.261 160.77 525.571 157.13 525.571 152.7C525.571 146.94 523.561 142.59 519.591 139.77C515.851 137.11 510.571 135.82 503.461 135.82H492.111C490.611 135.82 489.711 136.41 489.211 136.91C488.711 137.41 488.121 138.32 488.121 139.81V193.44C488.121 194.94 488.711 195.84 489.211 196.34C489.711 196.84 490.621 197.43 492.111 197.43H503.141C511.071 197.43 516.901 196.03 520.961 193.16C525.251 190.13 527.421 185.67 527.421 179.9C527.421 175.07 525.901 171.24 522.901 168.5C521.741 167.45 520.451 166.55 519.011 165.8V165.82H519.021ZM515.271 159.96C512.921 161.85 509.131 162.81 504.031 162.81H495.141V142.85H503.231C508.721 142.85 512.761 143.73 515.251 145.48C517.481 147.04 518.561 149.43 518.561 152.79C518.561 155.85 517.481 158.19 515.271 159.96ZM495.131 169.82H504.021C518.711 169.82 520.401 175.63 520.401 180C520.401 184.37 518.611 190.42 503.131 190.42H495.121V169.81H495.131V169.82Z" fill="#1A2733"/>
<path d="M564.021 139.39C564.021 139.39 564.011 139.36 564.001 139.35C563.531 138.35 563.151 137.67 562.871 137.28C561.461 135.35 558.621 135.36 557.231 137.28C556.961 137.65 556.571 138.34 556.081 139.38L532.181 192.76C531.671 193.78 531.591 194.72 531.921 195.53C532.311 196.53 533.751 197.4 534.821 197.4H535.461C536.351 197.4 537.111 197.15 537.671 196.68C538.161 196.29 538.541 195.76 538.881 194.98L560.051 147.48L581.211 194.96C581.451 195.51 581.801 196.2 582.361 196.64C582.971 197.15 583.731 197.41 584.631 197.41H585.191C587.261 197.41 588.351 195.94 588.351 194.49C588.351 194.04 588.241 193.67 587.971 192.87L564.021 139.38V139.39Z" fill="#1A2733"/>
<path d="M637.36 135.84H636.89C636.32 135.84 635.28 136.15 634.83 136.51C634.41 136.84 633.69 137.62 633.69 139.04V183.71L601.03 138.21C600.65 137.69 600.27 137.25 599.85 136.87C597.61 134.89 594 135.73 594 139.86V194.46C594 195.12 594.41 196.23 594.87 196.71C595.46 197.33 596.29 197.67 597.67 197.67C599.16 197.67 599.94 196.9 600.21 196.51C600.56 196.06 600.87 195.03 600.87 194.46V149.82L633.54 195.33C633.92 195.85 634.29 196.28 634.7 196.65C635.45 197.32 636.27 197.66 637.12 197.66C638.83 197.66 640.56 196.43 640.56 193.67V139.04C640.56 138.11 640.29 137.34 639.66 136.68C639.09 136.12 638.31 135.84 637.36 135.84Z" fill="#1A2733"/>
<path d="M665.449 166.76L692.199 141.84C692.549 141.5 693.369 140.7 693.369 139.46C693.369 138.03 692.269 136.57 690.169 136.57H689.619C688.819 136.57 688.149 136.72 687.639 136.98C687.209 137.19 686.769 137.49 686.129 138.05L660.069 162.41V139.04C660.069 138.11 659.799 137.34 659.199 136.71C658.619 136.13 657.839 135.84 656.869 135.84H656.399C655.829 135.84 654.789 136.15 654.339 136.51C653.919 136.84 653.199 137.62 653.199 139.04V194.45C653.199 195.12 653.619 196.24 654.089 196.72C654.679 197.32 655.499 197.65 656.879 197.65C658.369 197.65 659.149 196.88 659.419 196.49C659.769 196.04 660.079 195.01 660.079 194.44V171.09L686.199 195.51C686.759 196 687.199 196.31 687.569 196.48C688.149 196.78 688.819 196.93 689.619 196.93H690.169C692.269 196.93 693.369 195.48 693.369 194.04C693.369 192.8 692.549 192 692.159 191.61L665.449 166.74V166.76Z" fill="#1A2733"/>
<path d="M242.861 57.2801C237.471 54.3601 230.531 51.8501 222.061 49.7601C216.451 48.3301 212.131 47.01 209.101 45.8C206.081 44.59 203.791 43.1001 202.251 41.3401C200.711 39.5801 199.941 37.3301 199.941 34.5701C199.941 30.7201 201.511 27.6401 204.641 25.3201C207.781 23.0101 212.041 21.86 217.431 21.86C222.271 21.86 226.901 22.7401 231.301 24.5001C235.701 26.2701 240.161 28.7401 244.671 31.9301C245.881 32.8101 246.871 33.2501 247.641 33.2501C248.631 33.2501 249.561 32.54 250.441 31.11L257.371 20.2201C258.141 19.1201 258.521 18.1301 258.521 17.2501C258.521 16.1501 257.921 15.1601 256.701 14.2701C245.261 5.14005 232.221 0.570068 217.581 0.570068C209.551 0.570068 202.361 1.97006 196.041 4.78006C189.711 7.59006 184.761 11.6601 181.181 17.0001C177.611 22.3301 175.821 28.6901 175.821 36.0601C175.821 42.6601 177.221 48.1701 180.031 52.5701C182.841 56.9701 186.851 60.5501 192.081 63.2901C197.301 66.0401 203.931 68.4101 211.971 70.3901C218.021 71.9301 222.671 73.3601 225.921 74.6801C229.161 76.0001 231.501 77.4901 232.931 79.1401C234.361 80.7901 235.081 82.93 235.081 85.58C235.081 89.64 233.321 92.8701 229.801 95.2301C226.271 97.6001 221.271 98.7801 214.781 98.7801C209.611 98.7801 204.521 97.8201 199.511 95.8901C194.501 93.9601 189.911 91.35 185.731 88.05C184.631 87.06 183.641 86.5601 182.761 86.5601C182.321 86.5601 181.851 86.7501 181.361 87.1401C180.871 87.5201 180.401 88.0501 179.961 88.7101L173.031 99.4301C172.151 100.86 171.711 101.91 171.711 102.56C171.711 103.55 172.481 104.65 174.021 105.87C179.301 110.27 185.411 113.74 192.341 116.27C199.271 118.8 206.701 120.06 214.621 120.06C223.311 120.06 231.021 118.6 237.731 115.69C244.441 112.77 249.671 108.62 253.411 103.22C257.151 97.8301 259.021 91.45 259.021 84.08C259.021 77.81 257.671 72.5001 254.981 68.1501C252.281 63.8101 248.241 60.1801 242.851 57.2601" fill="#1A2733"/>
<path d="M361.948 24.44C362.548 23.84 362.858 22.82 362.858 21.38V7.84C362.858 6.41 362.558 5.40001 361.948 4.79001C361.338 4.19001 360.318 3.88 358.888 3.88H274.548C273.118 3.88 272.098 4.19001 271.488 4.79001C270.878 5.40001 270.578 6.41 270.578 7.84V21.38C270.578 22.81 270.878 23.83 271.488 24.44C272.098 25.04 273.118 25.35 274.548 25.35H302.938C303.708 25.35 304.278 25.52 304.668 25.84C305.048 26.17 305.248 26.72 305.248 27.49V115.47C305.248 116.9 305.548 117.92 306.158 118.52C306.768 119.13 307.788 119.43 309.218 119.43H324.238C325.668 119.43 326.718 119.13 327.378 118.52C328.038 117.92 328.368 116.89 328.368 115.47V27.49C328.368 26.72 328.538 26.17 328.868 25.84C329.198 25.52 329.738 25.35 330.518 25.35H358.908C360.338 25.35 361.358 25.05 361.968 24.44" fill="#1A2733"/>
<path d="M422.78 9.5C421.13 6.2 419.86 3.99999 418.98 2.89999C418.1 1.79999 417.05 1.25 415.84 1.25C414.63 1.25 413.53 1.79999 412.54 2.89999C411.55 3.99999 410.28 6.2 408.74 9.5L357.41 114.31C356.86 115.63 356.59 116.57 356.59 117.12C356.59 118.66 357.8 119.43 360.22 119.43H374.91C376.89 119.43 378.38 119.1 379.37 118.44C380.36 117.78 381.35 116.4 382.34 114.31L415.35 43.99L448.69 114.31C449.68 116.4 450.67 117.78 451.66 118.44C452.65 119.1 454.08 119.43 455.95 119.43H471.63C474.05 119.43 475.26 118.66 475.26 117.12C475.26 116.57 474.99 115.63 474.44 114.31L422.78 9.5Z" fill="#1A2733"/>
<path d="M555.479 71.9C562.079 69.15 567.219 65.24 570.909 60.18C574.599 55.12 576.439 48.85 576.439 41.36C576.439 28.81 572.369 19.43 564.219 13.21C556.079 6.98999 543.699 3.88 527.079 3.88H492.089C490.659 3.88 489.639 4.19001 489.039 4.79001C488.429 5.39001 488.129 6.41 488.129 7.84V115.46C488.129 116.89 488.429 117.91 489.039 118.52C489.639 119.12 490.659 119.43 492.089 119.43H507.109C508.539 119.43 509.589 119.13 510.249 118.52C510.909 117.92 511.239 116.89 511.239 115.46V26.65C511.239 25.78 511.409 25.2 511.739 24.92C512.069 24.65 512.619 24.51 513.389 24.51H526.269C534.739 24.51 541.209 26.03 545.659 29.04C550.119 32.07 552.339 36.83 552.339 43.32C552.339 49.37 550.219 54.05 545.989 57.35C541.749 60.65 536.169 62.69 529.239 63.46C527.259 63.57 526.269 64.18 526.269 65.27C526.269 65.93 526.599 66.76 527.259 67.75L555.489 114.62C556.699 116.6 557.829 117.9 558.869 118.5C559.909 119.1 561.479 119.41 563.569 119.41H579.579C582.219 119.41 583.539 118.75 583.539 117.43C583.539 116.77 583.099 115.73 582.219 114.29L555.479 71.87V71.9Z" fill="#1A2733"/>
<path d="M616.718 3.88H601.698C600.268 3.88 599.248 4.19001 598.648 4.79001C598.038 5.39001 597.738 6.41 597.738 7.84V115.46C597.738 116.89 598.038 117.91 598.648 118.52C599.248 119.12 600.268 119.43 601.698 119.43H616.718C618.148 119.43 619.198 119.13 619.858 118.52C620.518 117.92 620.848 116.89 620.848 115.46V7.84C620.848 6.41 620.518 5.39001 619.858 4.79001C619.198 4.18001 618.148 3.88 616.718 3.88Z" fill="#1A2733"/>
<path d="M650.059 60.34L691.319 8.35004C692.089 7.47004 692.479 6.64004 692.479 5.88004C692.479 4.55004 691.379 3.90002 689.179 3.90002H671.679C669.699 3.90002 668.209 4.18003 667.219 4.72003C666.229 5.28003 665.129 6.43004 663.919 8.20004L625.959 57.55C624.859 58.98 624.309 60.19 624.309 61.18C624.309 62.17 624.799 63.33 625.789 64.65L664.419 115.33C665.629 116.98 666.759 118.08 667.799 118.63C668.839 119.18 670.359 119.45 672.339 119.45H690.499C692.809 119.45 693.969 118.79 693.969 117.47C693.969 116.81 693.579 115.93 692.809 114.83L650.059 60.36V60.34Z" fill="#1A2733"/>
</svg>
