<svg width="22" height="24" viewBox="0 0 22 24" fill="none" xmlns="http://www.w3.org/2000/svg">
<path d="M13.332 4.644L13.344 4.596L12.732 4.416C12.372 4.308 11.988 4.236 11.604 4.2H11.544C11.316 4.176 11.136 4.164 10.956 4.164H10.932C10.752 4.164 10.572 4.176 10.344 4.2H10.284C9.9 4.236 9.528 4.308 9.156 4.416L8.568 4.584L8.58 4.632C7.536 5.064 6.624 5.76 5.952 6.66C5.124 7.764 4.68 9.072 4.68 10.452C4.68 11.388 4.836 12.24 5.124 12.996C5.532 14.016 6.132 14.7 6.66 15.264L6.768 15.372C6.972 15.576 7.14 15.756 7.26 15.912C7.416 16.104 7.452 16.224 7.464 16.284C7.572 16.872 7.584 17.628 7.584 17.712V17.76C7.584 18.672 8.328 19.416 9.24 19.416H12.66C13.572 19.416 14.316 18.672 14.316 17.76V17.712C14.316 17.7 14.316 16.908 14.436 16.284C14.448 16.224 14.484 16.152 14.532 16.068C14.64 15.888 14.868 15.648 15.12 15.384L15.132 15.372C15.552 14.928 16.068 14.388 16.488 13.608C16.98 12.708 17.22 11.64 17.22 10.452C17.22 9.072 16.776 7.764 15.948 6.66C15.264 5.772 14.364 5.076 13.332 4.644ZM8.82 16.044C8.772 15.816 8.688 15.588 8.544 15.348C8.34 15.036 8.1 14.784 7.848 14.508L7.776 14.436C7.416 14.052 6.96 13.584 6.624 12.948C6.24 12.228 6.06 11.424 6.06 10.452C6.06 9.372 6.408 8.352 7.044 7.5C7.668 6.672 8.568 6.048 9.552 5.76L9.672 5.724C9.936 5.652 10.188 5.604 10.428 5.58H10.476C10.644 5.568 10.788 5.556 10.908 5.556H10.98C11.1 5.556 11.232 5.568 11.388 5.58L11.46 5.592C11.7 5.616 11.952 5.664 12.204 5.736L12.336 5.772C13.32 6.072 14.22 6.684 14.844 7.512C15.492 8.364 15.828 9.384 15.828 10.464C15.828 11.22 15.72 11.868 15.492 12.468L15.48 12.504C15.168 13.296 14.688 13.836 14.22 14.328L14.088 14.46C13.896 14.664 13.704 14.856 13.536 15.072C13.368 15.288 13.14 15.612 13.056 16.044C12.972 16.524 12.924 17.1 12.912 17.724V17.772C12.912 17.928 12.792 18.048 12.636 18.048C12.636 18.048 9.072 18.024 9.024 17.964C8.976 17.916 8.94 17.844 8.94 17.772V17.724C8.964 17.1 8.916 16.524 8.82 16.044ZM12.636 19.956H9.252C8.868 19.956 8.556 20.268 8.556 20.664C8.556 21.048 8.868 21.36 9.252 21.36H12.648C13.032 21.36 13.344 21.048 13.344 20.664C13.344 20.268 13.032 19.956 12.636 19.956ZM12.636 21.552H9.252C8.868 21.552 8.556 21.864 8.556 22.248C8.556 22.632 8.868 22.956 9.252 22.956H12.648C13.032 22.956 13.344 22.644 13.344 22.248C13.344 21.876 13.032 21.552 12.636 21.552ZM12.456 23.244V23.184H9.432V23.304C9.432 23.7 10.02 24 10.536 24H11.364C11.88 24 12.468 23.7 12.468 23.304V23.268C12.456 23.256 12.456 23.244 12.456 23.244ZM10.944 3.06C11.34 3.06 11.652 2.748 11.652 2.352V0.708C11.652 0.312 11.34 0 10.944 0C10.548 0 10.236 0.312 10.236 0.708V2.352C10.236 2.736 10.548 3.06 10.944 3.06ZM19.788 4.5C19.788 4.308 19.716 4.128 19.584 3.996C19.452 3.864 19.272 3.792 19.08 3.792C18.888 3.792 18.708 3.864 18.576 3.996L17.424 5.16C17.292 5.292 17.22 5.472 17.22 5.664C17.22 5.856 17.292 6.036 17.424 6.168C17.556 6.3 17.736 6.372 17.928 6.372C18.12 6.372 18.3 6.3 18.432 6.168L19.596 5.004C19.716 4.872 19.788 4.692 19.788 4.5ZM4.464 5.16L3.3 3.996C3.168 3.864 2.988 3.792 2.796 3.792C2.604 3.792 2.424 3.864 2.292 3.996C2.16 4.128 2.088 4.308 2.088 4.5C2.088 4.692 2.16 4.872 2.292 5.004L3.456 6.168C3.588 6.3 3.768 6.372 3.96 6.372C4.152 6.372 4.332 6.3 4.464 6.168C4.596 6.036 4.668 5.856 4.668 5.664C4.668 5.472 4.596 5.292 4.464 5.16ZM21.18 10.584H19.536C19.14 10.584 18.828 10.896 18.828 11.292C18.828 11.688 19.14 12 19.536 12H21.18C21.576 12 21.888 11.688 21.888 11.292C21.888 10.908 21.576 10.584 21.18 10.584ZM2.34 10.584H0.708C0.312 10.584 0 10.896 0 11.292C0 11.688 0.312 12 0.708 12H2.352C2.748 12 3.06 11.688 3.06 11.292C3.048 10.908 2.736 10.584 2.34 10.584Z" fill="#707072"/>
</svg>
