<svg xmlns="http://www.w3.org/2000/svg" width="378.844" height="262.764" viewBox="0 0 378.844 262.764">
  <g id="astronaut-ingravity" transform="translate(0 -58.04)">
    <path id="Path_10" data-name="Path 10" d="M134.979,109.125a37.26,37.26,0,0,1,1.13,4.415,4,4,0,0,0,7.858-1.5,45.44,45.44,0,0,0-1.374-5.366,4,4,0,0,0-7.614,2.455Z" fill="#fff"/>
    <path id="Path_11" data-name="Path 11" d="M94.22,78.258a4,4,0,0,0,3.993,4.007,39.3,39.3,0,0,1,30.261,14.792,4,4,0,0,0,6.246-5A47.371,47.371,0,0,0,98.227,74.265H98.22A4,4,0,0,0,94.22,78.258Z" fill="#fff"/>
    <path id="Path_12" data-name="Path 12" d="M111.556,213.187H93.583a4,4,0,0,0,0,8h17.973a4,4,0,0,0,0-8Z" fill="#fff"/>
    <path id="Path_13" data-name="Path 13" d="M377.673,242.862l-12.267-12.268a22.646,22.646,0,0,0-28.89-2.578L328.5,220c1.206.16,2.019.266,2.062.266a4,4,0,0,0,3.963-3.459l9.951-72.923a4,4,0,0,0-3.421-4.5l-17.2-2.352A22.65,22.65,0,0,0,299.3,152.466l-38.82-5.295a44.342,44.342,0,0,0-8.2-.351V129.137a31.479,31.479,0,1,0-62.959,0v21.354H173.844l-15.866-15.867A61.841,61.841,0,1,0,36.725,110.972l-28.49,28.49a28.117,28.117,0,0,0,0,39.764l64.6,64.6v6.694a44.04,44.04,0,0,0,43.99,43.991h6.281l3.159,3.157a79.2,79.2,0,0,0,111.881,0l39.558-39.414,42.269,42.3a4,4,0,0,0,5.656,0l52.042-52.042A4,4,0,0,0,377.673,242.862Zm-95.967,8.08V220.663a29.926,29.926,0,0,0,21.74-14.4l17.293,17.292-33.211,33.211Zm-46.572-39.163-17.416-17.416,1.157-8.467c.005-.037.012-.072.018-.108a29.971,29.971,0,0,0,7.425,2.5,30.31,30.31,0,0,0,5.848.572,29.671,29.671,0,0,0,13.443-3.237l7.228,9.51a44.477,44.477,0,0,0-6.236,5.183Zm18.592-57.006a22.013,22.013,0,0,1-32.777,23.045,36.007,36.007,0,0,1,32.777-23.045Zm23.98,32.654a43.86,43.86,0,0,0-17.818,3.759L252.224,181.1a30,30,0,0,0,9.68-25.663l22.125,3.018-3.954,29.037C279.289,187.452,278.5,187.427,277.706,187.427Zm0,8a35.735,35.735,0,0,1,19.447,5.7,22,22,0,0,1-38.981.055A35.736,35.736,0,0,1,277.706,195.427Zm49.436,16.336-6.327-.865,8.876-65,6.32.864Zm-25.311-50.878a4,4,0,0,0,4.5-3.423,14.626,14.626,0,0,1,15.424-12.591l-8.218,60.17-4.729-4.729a43.7,43.7,0,0,0-20.817-11.674l3.962-29.1Zm-73.912-5.152a43.869,43.869,0,0,0-12.247,14.384l-18.355-18.355s.01-23.253.022-23.564h46.913c.012.313.023,19.77.023,19.77A43.85,43.85,0,0,0,227.919,155.733Zm-7.129-50.081A23.55,23.55,0,0,1,242.522,120.2H199.067a23.522,23.522,0,0,1,21.723-14.546Zm-28.057,52.839s19.485,19.443,19.681,19.579a44.51,44.51,0,0,0-1.464,6.745l-.334,2.447-28.77-28.77h10.887Zm36.745,58.945-12.316,12.315-71.1-71.1a61.876,61.876,0,0,0,9.144-15.489Zm-77.71-97.55a54.062,54.062,0,0,1-.281,5.516c-13.12,12.749-30.839,18.138-46.117,14.177A20.456,20.456,0,0,0,84.933,120.3a20.771,20.771,0,0,0-2.6.183C74.8,104.147,79.751,82.849,94.939,67.662c.562-.562,1.113-1.085,1.657-1.587.442-.011.882-.034,1.327-.034A53.907,53.907,0,0,1,151.768,119.886ZM84.933,128.3a12.5,12.5,0,1,1-8.837,3.66A12.416,12.416,0,0,1,84.933,128.3Zm-.839-60.451c-13.183,16.7-16.886,38.038-9.386,55.2a20.493,20.493,0,1,0,29.564,24.5,48.728,48.728,0,0,0,11.263,1.306A58.7,58.7,0,0,0,148.591,138.1a53.844,53.844,0,1,1-64.5-70.252ZM72.837,193.034,19.407,139.6,36.15,122.861A61.943,61.943,0,0,0,72.836,176.4v16.637ZM30.293,189.97l14.084-14.084,6.308,6.308L36.6,196.278ZM8,159.344a19.976,19.976,0,0,1,5.758-14.077L38.721,170.23,24.637,184.314,13.893,173.57A19.989,19.989,0,0,1,8,159.344Zm34.257,42.59L56.341,187.85l16.5,16.5v28.168Zm39.132,54.822a20.437,20.437,0,0,1,23,4.162,20.7,20.7,0,0,1,3.44,24.455A36.1,36.1,0,0,1,81.389,256.756Zm34.787,29.74a28.3,28.3,0,0,0-2.65-27.016l19.934-19.935h23.7c.314,0,.625.012.937.024v46.92C157.788,286.5,116.393,286.5,116.176,286.5Zm64.47-23.467A23.515,23.515,0,0,1,166.1,284.741V241.315A23.521,23.521,0,0,1,180.646,263.029Zm51.846,28.984a71.2,71.2,0,0,1-97.939,2.5h22.609a31.483,31.483,0,0,0,0-62.967H135.8v-44.36a4,4,0,0,0-8,0v46.7l-19.648,19.648a28.384,28.384,0,0,0-27.319-5.152V179.314a61.643,61.643,0,0,0,59.8-14.77L211.5,235.407l-9.691,9.691a4,4,0,0,0,5.656,5.656l44.422-44.421a29.932,29.932,0,0,0,21.814,14.343v30.266Zm60.693-29.594,33.211-33.21,7.042,7.042a4,4,0,0,0,5.656,0,14.618,14.618,0,0,1,19.889-.693l-46.349,46.348ZM322.8,292.075l-4.513-4.513,46.386-46.385,4.512,4.513Z" fill="#fff"/>
  </g>
</svg>
